<svg width="13" height="13" viewBox="0 0 13 13" fill="none" xmlns="http://www.w3.org/2000/svg">
<path d="M6.49492 0.968659C3.35537 0.967389 0.8125 3.50899 0.8125 6.646C0.8125 9.12667 2.40322 11.2354 4.61855 12.0098C4.91689 12.0847 4.87119 11.8727 4.87119 11.7279V10.744C3.14844 10.9459 3.07861 9.80587 2.96309 9.61544C2.72949 9.2168 2.17725 9.11524 2.34229 8.92481C2.73457 8.72295 3.13447 8.97559 3.59785 9.65987C3.93301 10.1563 4.58682 10.0725 4.91816 9.98995C4.99053 9.69161 5.14541 9.42501 5.35869 9.21807C3.57373 8.89815 2.82979 7.80889 2.82979 6.51397C2.82979 5.88555 3.03672 5.30792 3.44297 4.842C3.18398 4.07393 3.46709 3.41631 3.50518 3.31856C4.24277 3.25255 5.00957 3.84669 5.06924 3.89366C5.48818 3.78067 5.9668 3.721 6.50254 3.721C7.04082 3.721 7.5207 3.78321 7.94346 3.89747C8.08691 3.78829 8.79785 3.27794 9.4834 3.34014C9.52021 3.4379 9.79697 4.08028 9.55322 4.83819C9.96455 5.30538 10.174 5.88809 10.174 6.51778C10.174 7.81524 9.425 8.90577 7.63496 9.22061C7.78828 9.37139 7.91002 9.55121 7.99307 9.74957C8.07612 9.94793 8.11881 10.1608 8.11865 10.3759V11.8041C8.12881 11.9184 8.11865 12.0314 8.30908 12.0314C10.5574 11.2734 12.1761 9.14952 12.1761 6.64727C12.1761 3.50899 9.63193 0.968659 6.49492 0.968659Z" fill="black"/>
</svg>
