<svg width="32" height="32" viewBox="0 0 32 32" fill="none" xmlns="http://www.w3.org/2000/svg">
<path d="M16 31.5C7.453 31.5 0.5 24.547 0.5 16C0.5 7.453 7.453 0.5 16 0.5C24.547 0.5 31.5 7.453 31.5 16C31.5 24.547 24.547 31.5 16 31.5Z" fill="white"/>
<path d="M16 1C24.271 1 31 7.729 31 16C31 24.271 24.271 31 16 31C7.729 31 1 24.271 1 16C1 7.729 7.729 1 16 1ZM16 0C7.163 0 0 7.163 0 16C0 24.837 7.163 32 16 32C24.837 32 32 24.837 32 16C32 7.163 24.837 0 16 0Z" fill="#00BDFF"/>
<path d="M16 3.00702C23.165 3.00702 28.993 8.83602 28.993 16C28.993 23.164 23.164 28.993 16 28.993C8.83596 28.993 3.00696 23.164 3.00696 16C3.00696 8.83602 8.83496 3.00702 16 3.00702Z" fill="black"/>
<path opacity="0.3" d="M16 3.00598C8.83598 3.00598 3.00598 8.83598 3.00598 16C3.00598 19.605 4.48398 22.871 6.86398 25.227L25.227 6.86398C22.871 4.48498 19.605 3.00598 16 3.00598Z" fill="white"/>
<path d="M18.5201 24.493H16.2571H13.9921C13.9921 24.493 13.9981 23.149 13.9921 22.228C10.8931 22.895 10.0281 20.529 10.0281 20.529C9.46206 19.397 8.89606 18.83 8.89606 18.83C7.76406 18.157 8.89606 18.264 8.89606 18.264C10.0281 18.264 10.5951 19.396 10.5951 19.396C11.5891 21.083 13.3571 20.812 13.9921 20.528C13.9921 19.962 14.2401 19.106 14.5581 18.829C12.0851 18.55 10.0261 17.13 10.0261 14.299C10.0261 11.468 10.5941 10.902 11.1611 10.335C11.0471 10.056 10.5731 9.02403 11.1791 7.50403C11.1791 7.50403 12.2921 7.50403 13.4241 9.20303C13.9851 8.64203 15.6891 8.63703 16.2561 8.63703C16.8211 8.63703 18.5251 8.64203 19.0861 9.20303C20.2181 7.50403 21.3341 7.50403 21.3341 7.50403C21.9391 9.02403 21.4661 10.056 21.3511 10.335C21.9171 10.901 22.4831 11.467 22.4831 14.299C22.4831 17.131 20.4271 18.55 17.9531 18.829C18.2721 19.105 18.5191 20.08 18.5191 20.528L18.5201 24.493Z" fill="#BABABA"/>
</svg>
